<svg width="20" height="20" viewBox="0 0 20 20" fill="none" xmlns="http://www.w3.org/2000/svg">
<path fill-rule="evenodd" clip-rule="evenodd" d="M3.90039 0.899902C2.24354 0.899902 0.900391 2.24305 0.900391 3.8999V12.1502C0.900391 13.807 2.24354 15.1502 3.90039 15.1502H12.1506C13.8075 15.1502 15.1506 13.807 15.1506 12.1502V3.8999C15.1506 2.24305 13.8075 0.899902 12.1506 0.899902H3.90039ZM19.1004 16.0999C19.1004 17.7568 17.7573 19.0999 16.1004 19.0999L7.28015 19.0999C5.83004 19.0999 4.62023 18.0711 4.34089 16.7035C4.78983 16.9712 5.3146 17.125 5.87529 17.125L14.1255 17.125C15.7824 17.125 17.1255 15.7819 17.1255 14.125L17.1255 5.8748C17.1255 5.31411 16.9717 4.78935 16.704 4.3404C18.0715 4.61974 19.1004 5.82955 19.1004 7.27966L19.1004 16.0999Z" fill="#4D4D55"/>
</svg>
