<svg width="22" height="22" viewBox="0 0 22 22" fill="none" xmlns="http://www.w3.org/2000/svg">
<path fill-rule="evenodd" clip-rule="evenodd" d="M0.200195 3.5C0.200195 1.84314 1.54334 0.5 3.2002 0.5H10.7716C12.4285 0.5 13.7716 1.84315 13.7716 3.5V11.0714C13.7716 12.7283 12.4285 14.0714 10.7716 14.0714H3.20019C1.54334 14.0714 0.200195 12.7283 0.200195 11.0714V3.5ZM14.5232 17.7857C16.1801 17.7857 17.5232 16.4426 17.5232 14.7857L17.5232 6.67143C17.5232 5.19175 16.452 3.96228 15.0427 3.71625C15.412 4.21483 15.6304 4.83192 15.6304 5.50001L15.6304 12.5C15.6304 14.1569 14.2873 15.5 12.6304 15.5L4.6304 15.5C4.20967 15.5 3.80916 15.4134 3.44574 15.257C3.67186 16.69 4.91243 17.7857 6.40893 17.7857L14.5232 17.7857ZM21.8006 18.5C21.8006 20.1569 20.4575 21.5 18.8006 21.5L10.8006 21.5C9.31327 21.5 8.07872 20.4176 7.84169 18.9976C8.05549 19.0459 8.27795 19.0714 8.50637 19.0714H16.0778C17.7347 19.0714 19.0778 17.7283 19.0778 16.0714V8.50002C19.0778 7.73166 18.7889 7.03076 18.3139 6.5H18.8006C20.4575 6.5 21.8006 7.84315 21.8006 9.5L21.8006 18.5Z" fill="#4D4D55"/>
</svg>
