<svg width="22" height="24" viewBox="0 0 22 24" fill="none" xmlns="http://www.w3.org/2000/svg">
<g clip-path="url(#clip0_387_13650)">
<path fill-rule="evenodd" clip-rule="evenodd" d="M0.200195 5.5C0.200195 3.84314 1.54334 2.5 3.2002 2.5H10.7716C12.4285 2.5 13.7716 3.84315 13.7716 5.5V13.0714C13.7716 14.7283 12.4285 16.0714 10.7716 16.0714H3.20019C1.54334 16.0714 0.200195 14.7283 0.200195 13.0714V5.5ZM14.5234 19.7861C16.1803 19.7861 17.5234 18.443 17.5234 16.7861L17.5234 8.67185C17.5234 7.1924 16.4525 5.96307 15.0436 5.71678C15.4126 6.21527 15.6309 6.83215 15.6309 7.5L15.6309 14.5C15.6309 16.1569 14.2877 17.5 12.6309 17.5L4.63086 17.5C4.21 17.5 3.80938 17.4133 3.44587 17.2569C3.67175 18.6901 4.91245 19.7861 6.40915 19.7861L14.5234 19.7861ZM21.8006 20.5C21.8006 22.1569 20.4575 23.5 18.8006 23.5L10.8006 23.5C9.31327 23.5 8.07872 22.4176 7.84169 20.9976C8.05549 21.0459 8.27795 21.0714 8.50637 21.0714H16.0778C17.7347 21.0714 19.0778 19.7283 19.0778 18.0714V10.5C19.0778 9.73166 18.7889 9.03076 18.3139 8.5H18.8006C20.4575 8.5 21.8006 9.84315 21.8006 11.5L21.8006 20.5Z" fill="#6E71FF"/>
<path d="M10.3042 9.96H8.0362V12.288H6.4522V9.96H4.1842V8.496H6.4522V6.168H8.0362V8.496H10.3042V9.96Z" fill="white"/>
</g>
<defs>
<clipPath id="clip0_387_13650">
<rect width="21.6004" height="23" fill="white" transform="translate(0.200195 0.5)"/>
</clipPath>
</defs>
</svg>
