<svg width="100%" height="100%" viewBox="0 0 28 29" fill="none" xmlns="http://www.w3.org/2000/svg">
<g clip-path="url(#clip0_3177_13211)">
<path d="M-0.000244141 0H21.9998C25.3135 0 27.9998 2.68629 27.9998 6V29H15.9998C7.1632 29 -0.000244141 21.8366 -0.000244141 13V0Z" fill="url(#paint0_linear_3177_13211)"/>
<path d="M18.2002 8C18.3056 8 18.4097 8.02645 18.5046 8.07737C18.5995 8.12829 18.6828 8.20237 18.7484 8.29408L18.8002 8.3781L20.9002 12.268C20.969 12.3955 21.0034 12.5423 20.9994 12.691C20.9955 12.8396 20.9533 12.9838 20.8778 13.1066L20.8218 13.1868L14.8507 20.6032C14.7398 20.7289 14.6074 20.8288 14.4614 20.8969C14.3153 20.9651 14.1585 21.0001 14.0001 21C13.7201 21 13.4506 20.8911 13.2231 20.6756L13.1286 20.5776L7.17848 13.1868C7.08896 13.0758 7.03002 12.9385 7.00868 12.7914C6.98733 12.6442 7.00448 12.4933 7.05807 12.3567L7.10007 12.2672L9.20922 8.3602L9.25402 8.29019C9.28615 8.24596 9.32253 8.20579 9.36253 8.17038L9.42483 8.12059L9.48643 8.08169L9.52143 8.06379L9.56343 8.04434L9.63973 8.01945L9.71814 8.00389L9.80004 8H18.2002ZM11.9799 11.0676C11.8208 10.9617 11.6303 10.9303 11.4503 10.9803C11.2704 11.0303 11.1157 11.1577 11.0202 11.3344L10.6002 12.1124L10.5582 12.2026C10.5046 12.3399 10.4878 12.4915 10.5097 12.6391C10.5317 12.7868 10.5916 12.9243 10.6821 13.0351L12.0821 14.7466L12.1451 14.8151C12.2747 14.9383 12.4403 15.0047 12.6108 15.0019C12.7813 14.999 12.945 14.9271 13.0712 14.7995L13.1321 14.7295C13.243 14.5855 13.3028 14.4014 13.3002 14.2119C13.2976 14.0224 13.2329 13.8405 13.1181 13.7002L12.0674 12.4166L12.22 12.1342L12.2585 12.054C12.3288 11.8802 12.3393 11.6838 12.288 11.5019C12.2366 11.3201 12.127 11.1655 11.9799 11.0676Z" fill="white"/>
</g>
<defs>
<linearGradient id="paint0_linear_3177_13211" x1="-0.000244141" y1="0" x2="28.9819" y2="27.9828" gradientUnits="userSpaceOnUse">
<stop stop-color="#4346E6"/>
<stop offset="1" stop-color="#F77389"/>
</linearGradient>
<clipPath id="clip0_3177_13211">
<rect width="100%" height="100%" fill="white" transform="translate(-0.000244141)"/>
</clipPath>
</defs>
</svg>
